<svg fill="none" height="100%" width="100%" viewBox="0 0 400 400" xmlns:xlink="http://www.w3.org/1999/xlink" xmlns="http://www.w3.org/2000/svg"><defs><clipPath id="i0"><rect height="400" width="400" y="0" x="0" /></clipPath><g id="i1"><g id="i2"><g transform="translate(-133,374)"><animateTransform repeatCount="indefinite" type="translate" attributeName="transform" dur="3s" begin="0s" calcMode="spline" values="-133 374; -133 374; 231 203; 231 203" keyTimes="0; 0.333333; 0.666667; 1" keySplines="0 0 1 1; 0 0 1 1; 0 0 1 1" fill="freeze" /><g transform="scale(0.43,0.43) translate(0,0)"><g id="i3"><path fill="#50e3c2" d="M367.75,-97C339.75,-97,311.935,-94.483,277,-75C225,-46,186.619,-63.179,155,-82C113,-107,68,-96,35,-82C6.108,-69.743,-37,-53.326,-94,-82.326C-151,-111.326,-200,-74,-200,-74C-200,-74,-352.07,320.209,-352.07,320.209C-352.07,320.209,499.162,354.093,499.162,354.093C499.162,354.093,395.75,-97,367.75,-97Z" /></g></g></g></g><g id="i4"><g transform="translate(81.5,370.25)"><animateTransform repeatCount="indefinite" type="translate" attributeName="transform" dur="3s" begin="0s" calcMode="spline" values="81.5 370.25; 81.5 370.25; 445.5 199.25; 445.5 199.25" keyTimes="0; 0.333333; 0.666667; 1" keySplines="0 0 1 1; 0 0 1 1; 0 0 1 1" fill="freeze" /><g transform="scale(0.43,0.43) translate(0,0)"><g id="i3"><path fill="#4cbba1" d="M367.75,-97C339.75,-97,311.935,-94.483,277,-75C225,-46,186.619,-63.179,155,-82C113,-107,68,-96,35,-82C6.108,-69.743,-37,-53.326,-94,-82.326C-151,-111.326,-200,-74,-200,-74C-200,-74,-352.07,320.209,-352.07,320.209C-352.07,320.209,499.162,354.093,499.162,354.093C499.162,354.093,395.75,-97,367.75,-97Z" /></g></g></g></g></g><filter id="i5"><feColorMatrix values="0 0 0 0 1 0 0 0 0 1 0 0 0 0 1 0 0 0 1 0" type="matrix" /></filter><mask height="20000" width="20000" y="-10000" x="-10000" maskContentUnits="userSpaceOnUse" maskUnits="userSpaceOnUse" style="mask-type: alpha" mask-type="alpha" id="i6"><g transform="matrix(1,0,0,1,0,0)"><g filter="url(#i5)" transform="matrix(0.5,0,0,0.5,215,268.5)"><g id="i7" transform="matrix(1,0,0,1,-31,-31)"><ellipse ry="154" rx="154" cy="0" cx="0" fill="#4cbba1" /></g></g></g></mask></defs><g mask="url(#i6)" transform="matrix(1,0,0,1,0,0)" id="i8"><g clip-path="url(#i0)"><g><g transform="translate(-133,374)"><animateTransform repeatCount="indefinite" type="translate" attributeName="transform" dur="3s" begin="0s" calcMode="spline" values="-133 374; -133 374; 231 203; 231 203" keyTimes="0; 0.333333; 0.666667; 1" keySplines="0 0 1 1; 0 0 1 1; 0 0 1 1" fill="freeze" /><g transform="scale(0.43,0.43) translate(0,0)"><g><path fill="#50e3c2" d="M367.75,-97C339.75,-97,311.935,-94.483,277,-75C225,-46,186.619,-63.179,155,-82C113,-107,68,-96,35,-82C6.108,-69.743,-37,-53.326,-94,-82.326C-151,-111.326,-200,-74,-200,-74C-200,-74,-352.07,320.209,-352.07,320.209C-352.07,320.209,499.162,354.093,499.162,354.093C499.162,354.093,395.75,-97,367.75,-97Z" /></g></g></g></g><g><g transform="translate(81.5,370.25)"><animateTransform repeatCount="indefinite" type="translate" attributeName="transform" dur="3s" begin="0s" calcMode="spline" values="81.5 370.25; 81.5 370.25; 445.5 199.25; 445.5 199.25" keyTimes="0; 0.333333; 0.666667; 1" keySplines="0 0 1 1; 0 0 1 1; 0 0 1 1" fill="freeze" /><g transform="scale(0.43,0.43) translate(0,0)"><g><path fill="#4cbba1" d="M367.75,-97C339.75,-97,311.935,-94.483,277,-75C225,-46,186.619,-63.179,155,-82C113,-107,68,-96,35,-82C6.108,-69.743,-37,-53.326,-94,-82.326C-151,-111.326,-200,-74,-200,-74C-200,-74,-352.07,320.209,-352.07,320.209C-352.07,320.209,499.162,354.093,499.162,354.093C499.162,354.093,395.75,-97,367.75,-97Z" /></g></g></g></g></g></g><g display="none" transform="matrix(0.5,0,0,0.5,215,268.5)" visibility="visible" id="i9"><animate repeatCount="indefinite" begin="0s" calcMode="discrete" dur="3s" values="visible; hidden; hidden" keyTimes="0; 0.833; 1" attributeName="visibility" /><g id="i7" transform="matrix(1,0,0,1,-31,-31)"><ellipse ry="154" rx="154" cy="0" cx="0" fill="#4cbba1" /></g></g><g transform="matrix(0.55,0,0,0.55,216.6,270.05)" visibility="visible" id="i10"><animate repeatCount="indefinite" begin="0s" calcMode="discrete" dur="3s" values="visible; hidden; hidden" keyTimes="0; 0.833; 1" attributeName="visibility" /><g stroke-dasharray="0 100" pathLength="100" id="i7" transform="matrix(1,0,0,1,-31,-31)"><ellipse ry="154" rx="154" cy="0" cx="0" stroke-width="10" stroke="#4cbba1" /><animate repeatCount="indefinite" fill="freeze" begin="0s" dur="3s" calcMode="spline" keySplines="0 0 1 1; 0 0 1 1; 0 0 1 1; 0 0 1 1" keyTimes="0; 0.166667; 0.333333; 0.666667; 1" values="0 100; 0 100; 0 100; 0 100; 0 100" attributeName="stroke-dasharray" /><animate repeatCount="indefinite" fill="freeze" begin="0s" dur="3s" calcMode="spline" keySplines="0 0 1 1; 0 0 1 1; 0 0 1 1; 0 0 1 1" keyTimes="0; 0.166667; 0.333333; 0.666667; 1" values="0; 0; -50; 0; 0" attributeName="stroke-dashoffset" /></g></g><g opacity="0" visibility="visible" id="i11"><animate repeatCount="indefinite" begin="0s" calcMode="discrete" dur="3s" values="visible; hidden; hidden" keyTimes="0; 0.833; 1" attributeName="visibility" /><animate repeatCount="indefinite" attributeName="opacity" dur="3s" begin="0s" fill="freeze" values="0; 0; 1; 1; 1" keyTimes="0; 0.638889; 0.652778; 0.666667; 1" keySplines="0 0 1 1; 0 0 1 1; 0 0 1 1; 0 0 1 1" calcMode="spline" /><g transform="translate(199.98,168.25)"><animateTransform repeatCount="indefinite" type="translate" attributeName="transform" dur="3s" begin="0s" calcMode="spline" values="199.98 168.25; 199.98 168.25; 199.98 158.037; 199.98 -10; 199.98 -10" keyTimes="0; 0.652778; 0.666667; 0.736111; 1" keySplines="0 0 1 1; 0 0 1 1; 0 0 1 1; 0 0 1 1" fill="freeze" /><g transform="scale(-0.04,0.01)"><animateTransform repeatCount="indefinite" type="scale" attributeName="transform" dur="3s" begin="0s" calcMode="spline" values="-0.04 0.01; -0.04 0.01; 0.015 0.04; 0.02 0.03; 0.02 0.03" keyTimes="0; 0.652778; 0.666667; 0.736111; 1" keySplines="0 0 1 1; 0 0 1 1; 0 0 1 1; 0 0 1 1" fill="freeze" /><g transform="translate(32,31)"><g id="i7" transform="matrix(1,0,0,1,-31,-31)"><ellipse ry="154" rx="154" cy="0" cx="0" fill="#4cbba1" /></g></g></g></g></g><g visibility="visible" id="i12"><animate repeatCount="indefinite" begin="0s" calcMode="discrete" dur="3s" values="visible; hidden; hidden" keyTimes="0; 0.833; 1" attributeName="visibility" /><animate repeatCount="indefinite" attributeName="opacity" dur="3s" begin="0s" fill="freeze" values="1; 1; 0; 0" keyTimes="0; 0.208333; 0.222222; 1" keySplines="0 0 1 1; 0 0 1 1; 0 0 1 1" calcMode="spline" /><g transform="translate(199,-14)"><animateTransform repeatCount="indefinite" type="translate" attributeName="transform" dur="3s" begin="0s" calcMode="spline" values="199 -14; 199 156; 199 164.066; 199 166.125; 199 168.375; 199 168.375" keyTimes="0; 0.166667; 0.180556; 0.194444; 0.208333; 1" keySplines="0 0 1 1; 0 0 1 1; 0 0 1 1; 0 0 1 1; 0 0 1 1" fill="freeze" /><g transform="scale(0.5,0.5)"><animateTransform repeatCount="indefinite" type="scale" attributeName="transform" dur="3s" begin="0s" calcMode="spline" values="0.5 0.5; 0.5 0.94; 0.7 0.433; 1.043 0.32; 2.12 0.18; 2.12 0.18" keyTimes="0; 0.166667; 0.180556; 0.194444; 0.208333; 1" keySplines="0 0 1 1; 0 0 1 1; 0 0 1 1; 0 0 1 1; 0 0 1 1" fill="freeze" /><g transform="translate(1,182.375)"><g id="i3"><path fill="#4cbba1" d="M-1.344,-193.078C-2.157,-192.953,-8.75,-185.75,-8.75,-180.5C-8.75,-175.687,-5.626,-172.188,-1.063,-172.313C3.5,-172.438,7.046,-175.564,6.938,-180.188C6.813,-185.563,-0.406,-193.078,-1.344,-193.078Z" /></g></g></g></g></g></svg>